<svg xmlns="http://www.w3.org/2000/svg" xmlns:xlink="http://www.w3.org/1999/xlink" width="500" zoomAndPan="magnify" viewBox="0 0 375 374.999991" height="500" preserveAspectRatio="xMidYMid meet" version="1.0"><defs><clipPath id="b671093160"><path d="M 0 48.113281 L 280 48.113281 L 280 317 L 0 317 Z M 0 48.113281 " clip-rule="nonzero"/></clipPath><clipPath id="2726ae8efe"><path d="M 98 49 L 375 49 L 375 327.113281 L 98 327.113281 Z M 98 49 " clip-rule="nonzero"/></clipPath></defs><rect x="-37.5" width="450" fill="#ffffff" y="-37.499999" height="449.999989" fill-opacity="1"/><rect x="-37.5" width="450" fill="#ffffff" y="-37.499999" height="449.999989" fill-opacity="1"/><path fill="#ff950c" d="M 139.675781 58.734375 C 68.351562 58.734375 10.53125 77.335938 10.53125 100.273438 L 10.53125 264.453125 C 10.53125 287.394531 68.351562 305.996094 139.675781 305.996094 C 211 305.996094 268.820312 287.394531 268.820312 264.453125 L 268.820312 100.273438 C 268.777344 77.335938 210.957031 58.734375 139.675781 58.734375 Z M 139.675781 58.734375 " fill-opacity="1" fill-rule="nonzero"/><path fill="#ffd12f" d="M 163.917969 69.644531 C 96.226562 69.644531 41.382812 87.875 41.382812 110.402344 L 41.382812 271.398438 C 41.382812 293.882812 96.226562 312.152344 163.917969 312.152344 C 231.609375 312.152344 286.453125 293.925781 286.453125 271.398438 L 286.453125 110.359375 C 286.453125 87.875 231.566406 69.644531 163.917969 69.644531 Z M 163.917969 69.644531 " fill-opacity="1" fill-rule="nonzero"/><g clip-path="url(#b671093160)"><path fill="#8c4f00" d="M 279.308594 100.234375 C 279.269531 66.050781 209.058594 48.195312 139.675781 48.195312 C 70.414062 48.195312 0.332031 66.007812 0.0429688 100.066406 C 0.0429688 100.152344 0 100.191406 0 100.273438 L 0 264.453125 C 0 298.636719 70.25 316.535156 139.675781 316.535156 C 209.058594 316.535156 279.308594 298.679688 279.308594 264.453125 L 279.308594 100.234375 C 279.308594 100.273438 279.308594 100.234375 279.308594 100.234375 Z M 258.289062 209.726562 C 258.289062 213.570312 250.152344 221.878906 227.765625 229.074219 C 204.390625 236.59375 173.085938 240.730469 139.675781 240.730469 C 106.265625 240.730469 74.957031 236.59375 51.582031 229.074219 C 29.199219 221.878906 21.0625 213.53125 21.0625 209.726562 C 21.0625 209.6875 21.0625 209.6875 21.0625 209.644531 L 21.0625 183.8125 C 47.039062 199.144531 93.542969 207.082031 139.675781 207.082031 C 185.808594 207.082031 232.308594 199.1875 258.289062 183.8125 Z M 258.289062 155 C 258.289062 158.84375 250.152344 167.152344 227.765625 174.34375 C 204.390625 181.867188 173.085938 186.003906 139.675781 186.003906 C 106.265625 186.003906 74.957031 181.867188 51.582031 174.34375 C 29.199219 167.152344 21.0625 158.804688 21.0625 155 C 21.0625 154.960938 21.0625 154.960938 21.0625 154.917969 L 21.0625 129.085938 C 47.039062 144.417969 93.542969 152.355469 139.675781 152.355469 C 185.808594 152.355469 232.308594 144.460938 258.289062 129.085938 Z M 51.582031 80.890625 C 74.957031 73.367188 106.265625 69.234375 139.675781 69.234375 C 173.085938 69.234375 204.390625 73.367188 227.765625 80.890625 C 250.152344 88.082031 258.289062 96.429688 258.289062 100.234375 C 258.289062 104.078125 250.152344 112.386719 227.765625 119.578125 C 204.390625 127.101562 173.085938 131.234375 139.675781 131.234375 C 106.265625 131.234375 74.957031 127.101562 51.582031 119.578125 C 29.199219 112.386719 21.0625 104.035156 21.0625 100.234375 C 21.019531 96.429688 29.15625 88.121094 51.582031 80.890625 Z M 227.765625 283.800781 C 204.390625 291.320312 173.085938 295.457031 139.675781 295.457031 C 106.222656 295.457031 74.957031 291.320312 51.582031 283.800781 C 29.199219 276.605469 21.0625 268.296875 21.0625 264.453125 L 21.0625 238.539062 C 47.039062 253.871094 93.542969 261.808594 139.675781 261.808594 C 185.808594 261.808594 232.308594 253.914062 258.289062 238.539062 L 258.289062 264.453125 C 258.289062 268.296875 250.152344 276.605469 227.765625 283.800781 Z M 227.765625 283.800781 " fill-opacity="1" fill-rule="nonzero"/></g><path fill="#ff950c" d="M 364.511719 188.480469 C 364.511719 190.578125 364.457031 192.671875 364.355469 194.765625 C 364.253906 196.859375 364.097656 198.949219 363.894531 201.035156 C 363.6875 203.117188 363.433594 205.199219 363.125 207.269531 C 362.816406 209.34375 362.460938 211.410156 362.050781 213.464844 C 361.644531 215.519531 361.183594 217.5625 360.675781 219.597656 C 360.167969 221.628906 359.609375 223.648438 359 225.652344 C 358.394531 227.660156 357.734375 229.648438 357.03125 231.621094 C 356.324219 233.59375 355.570312 235.550781 354.769531 237.484375 C 353.96875 239.421875 353.121094 241.335938 352.226562 243.230469 C 351.332031 245.125 350.390625 246.996094 349.402344 248.847656 C 348.414062 250.695312 347.382812 252.515625 346.308594 254.316406 C 345.230469 256.113281 344.109375 257.882812 342.945312 259.625 C 341.785156 261.367188 340.578125 263.082031 339.332031 264.761719 C 338.082031 266.445312 336.796875 268.097656 335.46875 269.71875 C 334.140625 271.339844 332.773438 272.925781 331.367188 274.476562 C 329.960938 276.03125 328.515625 277.546875 327.035156 279.03125 C 325.554688 280.511719 324.039062 281.957031 322.488281 283.363281 C 320.9375 284.769531 319.351562 286.140625 317.730469 287.46875 C 316.113281 288.796875 314.464844 290.085938 312.78125 291.335938 C 311.097656 292.585938 309.386719 293.789062 307.648438 294.953125 C 305.90625 296.117188 304.136719 297.238281 302.339844 298.316406 C 300.546875 299.394531 298.722656 300.425781 296.878906 301.414062 C 295.03125 302.402344 293.160156 303.34375 291.269531 304.242188 C 289.375 305.136719 287.460938 305.984375 285.527344 306.789062 C 283.59375 307.589844 281.640625 308.34375 279.667969 309.050781 C 277.695312 309.757812 275.707031 310.414062 273.703125 311.023438 C 271.699219 311.628906 269.683594 312.1875 267.652344 312.699219 C 265.621094 313.207031 263.578125 313.667969 261.523438 314.074219 C 259.472656 314.484375 257.410156 314.84375 255.335938 315.148438 C 253.265625 315.457031 251.1875 315.714844 249.105469 315.917969 C 247.019531 316.125 244.933594 316.277344 242.84375 316.382812 C 240.75 316.484375 238.65625 316.535156 236.5625 316.535156 C 234.46875 316.535156 232.378906 316.484375 230.285156 316.382812 C 228.195312 316.277344 226.105469 316.125 224.023438 315.917969 C 221.9375 315.714844 219.863281 315.457031 217.789062 315.148438 C 215.71875 314.84375 213.65625 314.484375 211.601562 314.074219 C 209.550781 313.667969 207.507812 313.207031 205.476562 312.699219 C 203.445312 312.1875 201.425781 311.628906 199.421875 311.023438 C 197.417969 310.414062 195.433594 309.757812 193.460938 309.050781 C 191.488281 308.34375 189.535156 307.589844 187.601562 306.789062 C 185.667969 305.984375 183.753906 305.136719 181.859375 304.242188 C 179.96875 303.34375 178.097656 302.402344 176.25 301.414062 C 174.402344 300.425781 172.582031 299.394531 170.785156 298.316406 C 168.992188 297.238281 167.222656 296.117188 165.480469 294.953125 C 163.738281 293.789062 162.027344 292.585938 160.347656 291.335938 C 158.664062 290.085938 157.015625 288.796875 155.394531 287.46875 C 153.777344 286.140625 152.191406 284.769531 150.640625 283.363281 C 149.089844 281.957031 147.574219 280.511719 146.09375 279.03125 C 144.613281 277.546875 143.167969 276.03125 141.761719 274.476562 C 140.355469 272.925781 138.988281 271.339844 137.660156 269.71875 C 136.332031 268.097656 135.042969 266.445312 133.796875 264.761719 C 132.550781 263.082031 131.34375 261.367188 130.179688 259.625 C 129.015625 257.882812 127.898438 256.113281 126.820312 254.316406 C 125.746094 252.515625 124.710938 250.695312 123.726562 248.847656 C 122.738281 246.996094 121.796875 245.125 120.902344 243.230469 C 120.007812 241.335938 119.160156 239.421875 118.355469 237.484375 C 117.554688 235.550781 116.800781 233.59375 116.097656 231.621094 C 115.390625 229.648438 114.734375 227.660156 114.128906 225.652344 C 113.519531 223.648438 112.960938 221.628906 112.453125 219.597656 C 111.945312 217.5625 111.484375 215.519531 111.078125 213.464844 C 110.667969 211.410156 110.308594 209.34375 110.003906 207.269531 C 109.695312 205.199219 109.4375 203.117188 109.234375 201.035156 C 109.027344 198.949219 108.875 196.859375 108.773438 194.765625 C 108.667969 192.671875 108.617188 190.578125 108.617188 188.480469 C 108.617188 186.386719 108.667969 184.292969 108.773438 182.199219 C 108.875 180.105469 109.027344 178.015625 109.234375 175.929688 C 109.4375 173.84375 109.695312 171.765625 110.003906 169.691406 C 110.308594 167.621094 110.667969 165.554688 111.078125 163.5 C 111.484375 161.445312 111.945312 159.402344 112.453125 157.367188 C 112.960938 155.335938 113.519531 153.316406 114.128906 151.308594 C 114.734375 149.304688 115.390625 147.316406 116.097656 145.34375 C 116.800781 143.367188 117.554688 141.414062 118.355469 139.476562 C 119.160156 137.542969 120.007812 135.625 120.902344 133.730469 C 121.796875 131.835938 122.738281 129.964844 123.726562 128.117188 C 124.710938 126.269531 125.746094 124.445312 126.820312 122.648438 C 127.898438 120.851562 129.015625 119.082031 130.179688 117.339844 C 131.34375 115.597656 132.550781 113.882812 133.796875 112.199219 C 135.042969 110.515625 136.332031 108.867188 137.660156 107.246094 C 138.988281 105.625 140.355469 104.039062 141.761719 102.488281 C 143.167969 100.933594 144.613281 99.417969 146.09375 97.933594 C 147.574219 96.453125 149.089844 95.007812 150.640625 93.601562 C 152.191406 92.191406 153.777344 90.824219 155.394531 89.496094 C 157.015625 88.164062 158.664062 86.875 160.347656 85.628906 C 162.027344 84.378906 163.738281 83.171875 165.480469 82.007812 C 167.222656 80.84375 168.992188 79.722656 170.785156 78.648438 C 172.582031 77.570312 174.402344 76.535156 176.25 75.546875 C 178.097656 74.5625 179.96875 73.617188 181.859375 72.722656 C 183.753906 71.828125 185.667969 70.976562 187.601562 70.175781 C 189.535156 69.375 191.488281 68.621094 193.460938 67.914062 C 195.433594 67.207031 197.417969 66.550781 199.421875 65.941406 C 201.425781 65.335938 203.445312 64.773438 205.476562 64.265625 C 207.507812 63.757812 209.550781 63.296875 211.601562 62.890625 C 213.65625 62.480469 215.71875 62.121094 217.789062 61.8125 C 219.863281 61.507812 221.9375 61.25 224.023438 61.046875 C 226.105469 60.839844 228.195312 60.683594 230.285156 60.582031 C 232.378906 60.480469 234.46875 60.429688 236.5625 60.429688 C 238.65625 60.429688 240.75 60.480469 242.84375 60.582031 C 244.933594 60.683594 247.019531 60.839844 249.105469 61.046875 C 251.1875 61.25 253.265625 61.507812 255.335938 61.8125 C 257.410156 62.121094 259.472656 62.480469 261.523438 62.890625 C 263.578125 63.296875 265.621094 63.757812 267.652344 64.265625 C 269.683594 64.773438 271.699219 65.335938 273.703125 65.941406 C 275.707031 66.550781 277.695312 67.207031 279.667969 67.914062 C 281.640625 68.621094 283.59375 69.375 285.527344 70.175781 C 287.460938 70.976562 289.375 71.828125 291.269531 72.722656 C 293.160156 73.617188 295.03125 74.5625 296.878906 75.546875 C 298.722656 76.535156 300.546875 77.570312 302.339844 78.648438 C 304.136719 79.722656 305.90625 80.84375 307.648438 82.007812 C 309.386719 83.171875 311.097656 84.378906 312.78125 85.628906 C 314.464844 86.875 316.113281 88.164062 317.730469 89.496094 C 319.351562 90.824219 320.9375 92.191406 322.488281 93.601562 C 324.039062 95.007812 325.554688 96.453125 327.035156 97.933594 C 328.515625 99.417969 329.960938 100.933594 331.367188 102.488281 C 332.773438 104.039062 334.140625 105.625 335.46875 107.246094 C 336.796875 108.867188 338.082031 110.515625 339.332031 112.199219 C 340.578125 113.882812 341.785156 115.597656 342.945312 117.339844 C 344.109375 119.082031 345.230469 120.851562 346.308594 122.648438 C 347.382812 124.445312 348.414062 126.269531 349.402344 128.117188 C 350.390625 129.964844 351.332031 131.835938 352.226562 133.730469 C 353.121094 135.625 353.96875 137.542969 354.769531 139.476562 C 355.570312 141.414062 356.324219 143.367188 357.03125 145.34375 C 357.734375 147.316406 358.394531 149.304688 359 151.308594 C 359.609375 153.316406 360.167969 155.335938 360.675781 157.367188 C 361.183594 159.402344 361.644531 161.445312 362.050781 163.5 C 362.460938 165.554688 362.816406 167.621094 363.125 169.691406 C 363.433594 171.765625 363.6875 173.84375 363.894531 175.929688 C 364.097656 178.015625 364.253906 180.105469 364.355469 182.199219 C 364.457031 184.292969 364.511719 186.386719 364.511719 188.480469 Z M 364.511719 188.480469 " fill-opacity="1" fill-rule="nonzero"/><path fill="#ffd12f" d="M 352.410156 193.027344 C 352.410156 194.878906 352.363281 196.726562 352.273438 198.570312 C 352.183594 200.417969 352.046875 202.261719 351.867188 204.101562 C 351.683594 205.941406 351.457031 207.777344 351.1875 209.605469 C 350.917969 211.433594 350.601562 213.253906 350.242188 215.066406 C 349.878906 216.878906 349.476562 218.683594 349.027344 220.476562 C 348.578125 222.269531 348.085938 224.050781 347.550781 225.820312 C 347.011719 227.589844 346.433594 229.34375 345.8125 231.085938 C 345.1875 232.828125 344.523438 234.550781 343.816406 236.257812 C 343.109375 237.96875 342.363281 239.65625 341.570312 241.328125 C 340.78125 243 339.953125 244.648438 339.082031 246.28125 C 338.210938 247.910156 337.300781 249.519531 336.351562 251.105469 C 335.402344 252.691406 334.414062 254.253906 333.386719 255.789062 C 332.359375 257.328125 331.296875 258.839844 330.195312 260.324219 C 329.097656 261.808594 327.960938 263.265625 326.789062 264.695312 C 325.617188 266.125 324.410156 267.523438 323.167969 268.890625 C 321.929688 270.261719 320.65625 271.601562 319.351562 272.910156 C 318.042969 274.214844 316.707031 275.488281 315.335938 276.730469 C 313.96875 277.972656 312.570312 279.179688 311.140625 280.351562 C 309.714844 281.527344 308.257812 282.664062 306.773438 283.765625 C 305.292969 284.867188 303.78125 285.929688 302.246094 286.957031 C 300.710938 287.984375 299.148438 288.972656 297.566406 289.921875 C 295.980469 290.875 294.375 291.785156 292.746094 292.65625 C 291.117188 293.527344 289.464844 294.359375 287.796875 295.148438 C 286.125 295.941406 284.4375 296.6875 282.730469 297.394531 C 281.023438 298.105469 279.300781 298.769531 277.5625 299.390625 C 275.824219 300.015625 274.070312 300.59375 272.300781 301.132812 C 270.535156 301.667969 268.753906 302.160156 266.964844 302.609375 C 265.171875 303.058594 263.371094 303.464844 261.558594 303.824219 C 259.746094 304.183594 257.925781 304.5 256.097656 304.773438 C 254.273438 305.042969 252.4375 305.269531 250.601562 305.453125 C 248.761719 305.632812 246.921875 305.769531 245.074219 305.859375 C 243.230469 305.949219 241.382812 305.996094 239.539062 305.996094 C 237.691406 305.996094 235.84375 305.949219 234 305.859375 C 232.152344 305.769531 230.3125 305.632812 228.472656 305.453125 C 226.636719 305.269531 224.804688 305.042969 222.976562 304.773438 C 221.148438 304.5 219.328125 304.183594 217.515625 303.824219 C 215.707031 303.464844 213.902344 303.058594 212.113281 302.609375 C 210.320312 302.160156 208.539062 301.667969 206.773438 301.132812 C 205.003906 300.59375 203.25 300.015625 201.511719 299.390625 C 199.773438 298.769531 198.050781 298.105469 196.34375 297.394531 C 194.636719 296.6875 192.949219 295.941406 191.277344 295.148438 C 189.609375 294.359375 187.960938 293.527344 186.328125 292.65625 C 184.699219 291.785156 183.09375 290.875 181.507812 289.921875 C 179.925781 288.972656 178.363281 287.984375 176.828125 286.957031 C 175.292969 285.929688 173.785156 284.867188 172.300781 283.765625 C 170.816406 282.664062 169.359375 281.527344 167.933594 280.351562 C 166.503906 279.179688 165.105469 277.972656 163.738281 276.730469 C 162.367188 275.488281 161.03125 274.214844 159.726562 272.90625 C 158.417969 271.601562 157.144531 270.261719 155.90625 268.890625 C 154.664062 267.523438 153.457031 266.125 152.285156 264.695312 C 151.113281 263.265625 149.976562 261.808594 148.878906 260.324219 C 147.777344 258.835938 146.714844 257.328125 145.6875 255.789062 C 144.660156 254.253906 143.671875 252.691406 142.722656 251.105469 C 141.773438 249.519531 140.863281 247.910156 139.992188 246.28125 C 139.121094 244.648438 138.292969 243 137.503906 241.328125 C 136.710938 239.65625 135.964844 237.96875 135.257812 236.257812 C 134.550781 234.550781 133.886719 232.828125 133.265625 231.085938 C 132.640625 229.34375 132.0625 227.589844 131.527344 225.820312 C 130.988281 224.050781 130.496094 222.269531 130.046875 220.476562 C 129.597656 218.683594 129.195312 216.878906 128.835938 215.066406 C 128.472656 213.253906 128.160156 211.433594 127.886719 209.605469 C 127.617188 207.777344 127.390625 205.941406 127.210938 204.101562 C 127.027344 202.261719 126.890625 200.417969 126.800781 198.570312 C 126.710938 196.726562 126.664062 194.878906 126.664062 193.027344 C 126.664062 191.179688 126.710938 189.332031 126.800781 187.484375 C 126.890625 185.640625 127.027344 183.796875 127.210938 181.957031 C 127.390625 180.117188 127.617188 178.28125 127.886719 176.453125 C 128.160156 174.625 128.472656 172.804688 128.835938 170.988281 C 129.195312 169.175781 129.597656 167.375 130.046875 165.582031 C 130.496094 163.785156 130.988281 162.003906 131.527344 160.234375 C 132.0625 158.46875 132.640625 156.710938 133.265625 154.972656 C 133.886719 153.230469 134.550781 151.507812 135.257812 149.796875 C 135.964844 148.089844 136.710938 146.402344 137.503906 144.730469 C 138.292969 143.058594 139.121094 141.40625 139.992188 139.777344 C 140.863281 138.144531 141.773438 136.539062 142.722656 134.953125 C 143.671875 133.367188 144.660156 131.804688 145.6875 130.269531 C 146.714844 128.730469 147.777344 127.21875 148.878906 125.734375 C 149.976562 124.25 151.113281 122.792969 152.285156 121.363281 C 153.457031 119.933594 154.664062 118.535156 155.90625 117.164062 C 157.144531 115.796875 158.417969 114.457031 159.726562 113.148438 C 161.03125 111.84375 162.367188 110.566406 163.738281 109.324219 C 165.105469 108.085938 166.503906 106.878906 167.933594 105.703125 C 169.359375 104.53125 170.816406 103.394531 172.300781 102.292969 C 173.785156 101.191406 175.292969 100.128906 176.828125 99.101562 C 178.363281 98.074219 179.925781 97.085938 181.511719 96.132812 C 183.09375 95.183594 184.699219 94.273438 186.332031 93.402344 C 187.960938 92.53125 189.609375 91.699219 191.277344 90.90625 C 192.949219 90.117188 194.636719 89.367188 196.34375 88.660156 C 198.050781 87.953125 199.773438 87.289062 201.511719 86.664062 C 203.25 86.042969 205.003906 85.464844 206.773438 84.925781 C 208.539062 84.390625 210.320312 83.898438 212.113281 83.449219 C 213.902344 83 215.707031 82.59375 217.515625 82.234375 C 219.328125 81.871094 221.148438 81.554688 222.976562 81.285156 C 224.804688 81.011719 226.636719 80.789062 228.472656 80.605469 C 230.3125 80.425781 232.152344 80.289062 234 80.199219 C 235.84375 80.109375 237.691406 80.0625 239.539062 80.0625 C 241.382812 80.0625 243.230469 80.109375 245.074219 80.199219 C 246.921875 80.289062 248.761719 80.425781 250.601562 80.605469 C 252.4375 80.789062 254.273438 81.011719 256.097656 81.285156 C 257.925781 81.554688 259.746094 81.871094 261.558594 82.234375 C 263.371094 82.59375 265.171875 83 266.964844 83.449219 C 268.753906 83.898438 270.535156 84.390625 272.300781 84.925781 C 274.070312 85.464844 275.824219 86.042969 277.5625 86.664062 C 279.300781 87.289062 281.023438 87.953125 282.730469 88.660156 C 284.4375 89.367188 286.125 90.117188 287.796875 90.90625 C 289.464844 91.699219 291.117188 92.53125 292.746094 93.402344 C 294.375 94.273438 295.980469 95.183594 297.566406 96.132812 C 299.148438 97.085938 300.710938 98.074219 302.246094 99.101562 C 303.78125 100.128906 305.292969 101.191406 306.773438 102.292969 C 308.257812 103.394531 309.714844 104.53125 311.140625 105.703125 C 312.570312 106.878906 313.96875 108.085938 315.335938 109.324219 C 316.707031 110.566406 318.042969 111.84375 319.351562 113.148438 C 320.65625 114.457031 321.929688 115.796875 323.167969 117.164062 C 324.410156 118.535156 325.617188 119.933594 326.789062 121.363281 C 327.960938 122.792969 329.097656 124.25 330.195312 125.734375 C 331.296875 127.21875 332.359375 128.730469 333.386719 130.269531 C 334.414062 131.804688 335.402344 133.367188 336.351562 134.953125 C 337.300781 136.539062 338.210938 138.144531 339.082031 139.777344 C 339.953125 141.40625 340.78125 143.058594 341.570312 144.730469 C 342.363281 146.402344 343.109375 148.089844 343.816406 149.796875 C 344.523438 151.507812 345.1875 153.230469 345.8125 154.972656 C 346.433594 156.710938 347.011719 158.46875 347.550781 160.234375 C 348.085938 162.003906 348.578125 163.785156 349.027344 165.582031 C 349.476562 167.375 349.878906 169.175781 350.242188 170.988281 C 350.601562 172.804688 350.917969 174.625 351.1875 176.453125 C 351.457031 178.28125 351.683594 180.117188 351.867188 181.957031 C 352.046875 183.796875 352.183594 185.640625 352.273438 187.484375 C 352.363281 189.332031 352.410156 191.179688 352.410156 193.027344 Z M 352.410156 193.027344 " fill-opacity="1" fill-rule="nonzero"/><path fill="#ffffff" d="M 347.121094 182.363281 C 348.566406 197.164062 346.378906 212.457031 341.050781 226.632812 C 339.6875 230.148438 338.078125 233.578125 336.507812 237.050781 C 334.734375 240.398438 332.75 243.664062 330.851562 246.96875 C 328.746094 250.113281 326.390625 253.128906 324.160156 256.230469 L 316.5625 264.742188 L 308.011719 272.347656 C 304.914062 274.582031 301.941406 276.9375 298.800781 279.046875 C 295.5 280.945312 292.234375 282.929688 288.890625 284.707031 C 285.421875 286.277344 281.992188 287.890625 278.484375 289.253906 C 264.316406 294.585938 249.035156 296.777344 234.25 295.332031 C 249.035156 293.84375 263.285156 290.207031 276.375 284.171875 C 279.640625 282.601562 282.777344 280.824219 286 279.253906 C 289.097656 277.433594 292.070312 275.40625 295.085938 273.507812 L 303.632812 267.015625 L 311.523438 259.742188 L 318.792969 251.847656 L 325.273438 243.292969 C 327.175781 240.273438 329.199219 237.257812 331.015625 234.199219 C 332.585938 230.972656 334.359375 227.832031 335.929688 224.566406 C 342 211.382812 345.636719 197.121094 347.121094 182.363281 Z M 347.121094 182.363281 " fill-opacity="1" fill-rule="nonzero"/><g clip-path="url(#2726ae8efe)"><path fill="#8c4f00" d="M 236.5625 327.035156 C 160.199219 327.035156 98.128906 264.867188 98.128906 188.480469 C 98.128906 112.054688 160.242188 49.929688 236.5625 49.929688 C 312.886719 49.929688 375 112.054688 375 188.480469 C 375 264.867188 312.886719 327.035156 236.5625 327.035156 Z M 236.5625 70.925781 C 171.804688 70.925781 119.148438 123.628906 119.148438 188.441406 C 119.148438 253.253906 171.804688 305.996094 236.5625 305.996094 C 301.320312 305.996094 353.976562 253.292969 353.976562 188.480469 C 353.976562 123.667969 301.28125 70.925781 236.5625 70.925781 Z M 236.5625 70.925781 " fill-opacity="1" fill-rule="nonzero"/></g><path fill="#8c4f00" d="M 281.621094 237.378906 C 274.476562 244.738281 264.316406 249.617188 251.144531 251.972656 L 251.144531 271.605469 L 226.238281 271.605469 L 226.238281 252.839844 C 217.402344 252.386719 208.933594 251.019531 200.882812 248.789062 C 192.828125 246.558594 186.136719 243.789062 180.808594 240.480469 L 194.230469 210.058594 C 200.136719 213.488281 206.703125 216.21875 214.015625 218.285156 C 221.324219 220.351562 228.34375 221.382812 235.035156 221.382812 C 240.816406 221.382812 244.949219 220.804688 247.425781 219.6875 C 249.902344 218.574219 251.144531 216.878906 251.144531 214.648438 C 251.144531 212.042969 249.53125 210.101562 246.269531 208.820312 C 243.046875 207.539062 237.679688 206.089844 230.285156 204.5625 C 220.746094 202.578125 212.773438 200.386719 206.414062 198.113281 C 200.054688 195.796875 194.519531 192.035156 189.8125 186.789062 C 185.105469 181.539062 182.75 174.429688 182.75 165.457031 C 182.75 155.082031 186.507812 146.15625 193.984375 138.757812 C 201.460938 131.316406 212.238281 126.605469 226.238281 124.621094 L 226.238281 105.316406 L 251.144531 105.316406 L 251.144531 124.25 C 265.265625 125.53125 277.242188 128.960938 287.03125 134.5 L 274.476562 164.757812 C 262.335938 158.640625 250.851562 155.539062 239.992188 155.539062 C 229.253906 155.539062 223.925781 158.144531 223.925781 163.308594 C 223.925781 165.789062 225.496094 167.648438 228.71875 168.890625 C 231.898438 170.128906 237.140625 171.453125 244.453125 172.859375 C 253.867188 174.636719 261.839844 176.660156 268.324219 178.976562 C 274.808594 181.289062 280.425781 185.011719 285.214844 190.21875 C 290.003906 195.425781 292.359375 202.496094 292.359375 211.464844 C 292.316406 221.382812 288.765625 230.023438 281.621094 237.378906 Z M 281.621094 237.378906 " fill-opacity="1" fill-rule="nonzero"/></svg>